G75*
%MOIN*%
%OFA0B0*%
%FSLAX25Y25*%
%IPPOS*%
%LPD*%
%AMOC8*
5,1,8,0,0,1.08239X$1,22.5*
%
%ADD10R,0.06000X0.16000*%
%ADD11C,0.06693*%
%ADD12C,0.01000*%
D10*
X0006728Y0039169D03*
X0026728Y0039169D03*
X0054366Y0039327D03*
X0074366Y0039327D03*
D11*
X0047319Y0073185D03*
X0033539Y0073185D03*
D12*
X0011228Y0038669D02*
X0011228Y0033094D01*
X0022228Y0033110D01*
X0022228Y0038669D01*
X0026228Y0038669D01*
X0026228Y0039669D01*
X0022228Y0039669D01*
X0022228Y0047367D01*
X0022331Y0047748D01*
X0022528Y0048090D01*
X0022807Y0048370D01*
X0023149Y0048567D01*
X0023531Y0048669D01*
X0026228Y0048669D01*
X0026228Y0039669D01*
X0027228Y0039669D01*
X0027228Y0048669D01*
X0029926Y0048669D01*
X0030307Y0048567D01*
X0030649Y0048370D01*
X0030929Y0048090D01*
X0031126Y0047748D01*
X0031228Y0047367D01*
X0031228Y0039669D01*
X0027228Y0039669D01*
X0027228Y0038669D01*
X0031228Y0038669D01*
X0031228Y0033124D01*
X0049866Y0033152D01*
X0049866Y0038827D01*
X0053866Y0038827D01*
X0053866Y0039827D01*
X0053866Y0048827D01*
X0051169Y0048827D01*
X0050787Y0048725D01*
X0050445Y0048527D01*
X0050166Y0048248D01*
X0049968Y0047906D01*
X0049866Y0047524D01*
X0049866Y0039827D01*
X0053866Y0039827D01*
X0054866Y0039827D01*
X0054866Y0048827D01*
X0057564Y0048827D01*
X0057945Y0048725D01*
X0058287Y0048527D01*
X0058566Y0048248D01*
X0058764Y0047906D01*
X0058866Y0047524D01*
X0058866Y0039827D01*
X0054866Y0039827D01*
X0054866Y0038827D01*
X0058866Y0038827D01*
X0058866Y0033165D01*
X0069866Y0033182D01*
X0069866Y0038827D01*
X0073866Y0038827D01*
X0073866Y0039827D01*
X0073866Y0048827D01*
X0071169Y0048827D01*
X0070787Y0048725D01*
X0070445Y0048527D01*
X0070166Y0048248D01*
X0069968Y0047906D01*
X0069866Y0047524D01*
X0069866Y0039827D01*
X0073866Y0039827D01*
X0074866Y0039827D01*
X0074866Y0048827D01*
X0075523Y0048827D01*
X0075569Y0084039D01*
X0005559Y0084039D01*
X0005559Y0048669D01*
X0006228Y0048669D01*
X0006228Y0039669D01*
X0007228Y0039669D01*
X0007228Y0048669D01*
X0009926Y0048669D01*
X0010307Y0048567D01*
X0010649Y0048370D01*
X0010929Y0048090D01*
X0011126Y0047748D01*
X0011228Y0047367D01*
X0011228Y0039669D01*
X0007228Y0039669D01*
X0007228Y0038669D01*
X0011228Y0038669D01*
X0011228Y0038564D02*
X0022228Y0038564D01*
X0022228Y0037565D02*
X0011228Y0037565D01*
X0011228Y0036567D02*
X0022228Y0036567D01*
X0022228Y0035568D02*
X0011228Y0035568D01*
X0011228Y0034570D02*
X0022228Y0034570D01*
X0022228Y0033571D02*
X0011228Y0033571D01*
X0007228Y0039562D02*
X0026228Y0039562D01*
X0026228Y0040561D02*
X0027228Y0040561D01*
X0027228Y0041559D02*
X0026228Y0041559D01*
X0026228Y0042558D02*
X0027228Y0042558D01*
X0027228Y0043556D02*
X0026228Y0043556D01*
X0026228Y0044555D02*
X0027228Y0044555D01*
X0027228Y0045553D02*
X0026228Y0045553D01*
X0026228Y0046552D02*
X0027228Y0046552D01*
X0027228Y0047550D02*
X0026228Y0047550D01*
X0026228Y0048549D02*
X0027228Y0048549D01*
X0030339Y0048549D02*
X0050483Y0048549D01*
X0049873Y0047550D02*
X0031179Y0047550D01*
X0031228Y0046552D02*
X0049866Y0046552D01*
X0049866Y0045553D02*
X0031228Y0045553D01*
X0031228Y0044555D02*
X0049866Y0044555D01*
X0049866Y0043556D02*
X0031228Y0043556D01*
X0031228Y0042558D02*
X0049866Y0042558D01*
X0049866Y0041559D02*
X0031228Y0041559D01*
X0031228Y0040561D02*
X0049866Y0040561D01*
X0049866Y0038564D02*
X0031228Y0038564D01*
X0031228Y0037565D02*
X0049866Y0037565D01*
X0049866Y0036567D02*
X0031228Y0036567D01*
X0031228Y0035568D02*
X0049866Y0035568D01*
X0049866Y0034570D02*
X0031228Y0034570D01*
X0031228Y0033571D02*
X0049866Y0033571D01*
X0053866Y0039562D02*
X0027228Y0039562D01*
X0022228Y0040561D02*
X0011228Y0040561D01*
X0011228Y0041559D02*
X0022228Y0041559D01*
X0022228Y0042558D02*
X0011228Y0042558D01*
X0011228Y0043556D02*
X0022228Y0043556D01*
X0022228Y0044555D02*
X0011228Y0044555D01*
X0011228Y0045553D02*
X0022228Y0045553D01*
X0022228Y0046552D02*
X0011228Y0046552D01*
X0011179Y0047550D02*
X0022278Y0047550D01*
X0023118Y0048549D02*
X0010339Y0048549D01*
X0007228Y0048549D02*
X0006228Y0048549D01*
X0006228Y0047550D02*
X0007228Y0047550D01*
X0007228Y0046552D02*
X0006228Y0046552D01*
X0006228Y0045553D02*
X0007228Y0045553D01*
X0007228Y0044555D02*
X0006228Y0044555D01*
X0006228Y0043556D02*
X0007228Y0043556D01*
X0007228Y0042558D02*
X0006228Y0042558D01*
X0006228Y0041559D02*
X0007228Y0041559D01*
X0007228Y0040561D02*
X0006228Y0040561D01*
X0005559Y0049547D02*
X0075524Y0049547D01*
X0075525Y0050546D02*
X0005559Y0050546D01*
X0005559Y0051545D02*
X0075526Y0051545D01*
X0075527Y0052543D02*
X0005559Y0052543D01*
X0005559Y0053542D02*
X0075529Y0053542D01*
X0075530Y0054540D02*
X0005559Y0054540D01*
X0005559Y0055539D02*
X0075531Y0055539D01*
X0075533Y0056537D02*
X0005559Y0056537D01*
X0005559Y0057536D02*
X0075534Y0057536D01*
X0075535Y0058534D02*
X0005559Y0058534D01*
X0005559Y0059533D02*
X0075537Y0059533D01*
X0075538Y0060531D02*
X0005559Y0060531D01*
X0005559Y0061530D02*
X0075539Y0061530D01*
X0075541Y0062528D02*
X0005559Y0062528D01*
X0005559Y0063527D02*
X0075542Y0063527D01*
X0075543Y0064525D02*
X0005559Y0064525D01*
X0005559Y0065524D02*
X0075545Y0065524D01*
X0075546Y0066522D02*
X0005559Y0066522D01*
X0005559Y0067521D02*
X0075547Y0067521D01*
X0075548Y0068519D02*
X0050025Y0068519D01*
X0050347Y0068653D02*
X0051851Y0070157D01*
X0052665Y0072122D01*
X0052665Y0074249D01*
X0051851Y0076214D01*
X0050347Y0077718D01*
X0048382Y0078531D01*
X0046255Y0078531D01*
X0044290Y0077718D01*
X0042786Y0076214D01*
X0041972Y0074249D01*
X0041972Y0072122D01*
X0042786Y0070157D01*
X0044290Y0068653D01*
X0046255Y0067839D01*
X0048382Y0067839D01*
X0050347Y0068653D01*
X0051213Y0069518D02*
X0075550Y0069518D01*
X0075551Y0070516D02*
X0052000Y0070516D01*
X0052414Y0071515D02*
X0075552Y0071515D01*
X0075554Y0072513D02*
X0052665Y0072513D01*
X0052665Y0073512D02*
X0075555Y0073512D01*
X0075556Y0074510D02*
X0052557Y0074510D01*
X0052143Y0075509D02*
X0075558Y0075509D01*
X0075559Y0076507D02*
X0051558Y0076507D01*
X0050559Y0077506D02*
X0075560Y0077506D01*
X0075562Y0078504D02*
X0048448Y0078504D01*
X0046190Y0078504D02*
X0034668Y0078504D01*
X0034603Y0078531D02*
X0032476Y0078531D01*
X0030511Y0077718D01*
X0029007Y0076214D01*
X0028193Y0074249D01*
X0028193Y0072122D01*
X0029007Y0070157D01*
X0030511Y0068653D01*
X0032476Y0067839D01*
X0034603Y0067839D01*
X0036568Y0068653D01*
X0038072Y0070157D01*
X0038886Y0072122D01*
X0038886Y0074249D01*
X0038072Y0076214D01*
X0036568Y0077718D01*
X0034603Y0078531D01*
X0032410Y0078504D02*
X0005559Y0078504D01*
X0005559Y0077506D02*
X0030299Y0077506D01*
X0029301Y0076507D02*
X0005559Y0076507D01*
X0005559Y0075509D02*
X0028715Y0075509D01*
X0028301Y0074510D02*
X0005559Y0074510D01*
X0005559Y0073512D02*
X0028193Y0073512D01*
X0028193Y0072513D02*
X0005559Y0072513D01*
X0005559Y0071515D02*
X0028444Y0071515D01*
X0028858Y0070516D02*
X0005559Y0070516D01*
X0005559Y0069518D02*
X0029646Y0069518D01*
X0030833Y0068519D02*
X0005559Y0068519D01*
X0005559Y0079503D02*
X0075563Y0079503D01*
X0075564Y0080501D02*
X0005559Y0080501D01*
X0005559Y0081500D02*
X0075566Y0081500D01*
X0075567Y0082498D02*
X0005559Y0082498D01*
X0005559Y0083497D02*
X0075568Y0083497D01*
X0074866Y0048549D02*
X0073866Y0048549D01*
X0073866Y0047550D02*
X0074866Y0047550D01*
X0074866Y0046552D02*
X0073866Y0046552D01*
X0073866Y0045553D02*
X0074866Y0045553D01*
X0074866Y0044555D02*
X0073866Y0044555D01*
X0073866Y0043556D02*
X0074866Y0043556D01*
X0074866Y0042558D02*
X0073866Y0042558D01*
X0073866Y0041559D02*
X0074866Y0041559D01*
X0074866Y0040561D02*
X0073866Y0040561D01*
X0073866Y0039562D02*
X0054866Y0039562D01*
X0054866Y0040561D02*
X0053866Y0040561D01*
X0053866Y0041559D02*
X0054866Y0041559D01*
X0054866Y0042558D02*
X0053866Y0042558D01*
X0053866Y0043556D02*
X0054866Y0043556D01*
X0054866Y0044555D02*
X0053866Y0044555D01*
X0053866Y0045553D02*
X0054866Y0045553D01*
X0054866Y0046552D02*
X0053866Y0046552D01*
X0053866Y0047550D02*
X0054866Y0047550D01*
X0054866Y0048549D02*
X0053866Y0048549D01*
X0058249Y0048549D02*
X0070483Y0048549D01*
X0069873Y0047550D02*
X0058859Y0047550D01*
X0058866Y0046552D02*
X0069866Y0046552D01*
X0069866Y0045553D02*
X0058866Y0045553D01*
X0058866Y0044555D02*
X0069866Y0044555D01*
X0069866Y0043556D02*
X0058866Y0043556D01*
X0058866Y0042558D02*
X0069866Y0042558D01*
X0069866Y0041559D02*
X0058866Y0041559D01*
X0058866Y0040561D02*
X0069866Y0040561D01*
X0069866Y0038564D02*
X0058866Y0038564D01*
X0058866Y0037565D02*
X0069866Y0037565D01*
X0069866Y0036567D02*
X0058866Y0036567D01*
X0058866Y0035568D02*
X0069866Y0035568D01*
X0069866Y0034570D02*
X0058866Y0034570D01*
X0058866Y0033571D02*
X0069866Y0033571D01*
X0044612Y0068519D02*
X0036246Y0068519D01*
X0037433Y0069518D02*
X0043425Y0069518D01*
X0042637Y0070516D02*
X0038221Y0070516D01*
X0038634Y0071515D02*
X0042224Y0071515D01*
X0041972Y0072513D02*
X0038886Y0072513D01*
X0038886Y0073512D02*
X0041972Y0073512D01*
X0042081Y0074510D02*
X0038777Y0074510D01*
X0038364Y0075509D02*
X0042494Y0075509D01*
X0043080Y0076507D02*
X0037778Y0076507D01*
X0036780Y0077506D02*
X0044079Y0077506D01*
M02*
